<?xml version="1.0" encoding="UTF-8"?>
<svg width="1920px" height="1080px" viewBox="0 0 1920 1080" version="1.1" xmlns="http://www.w3.org/2000/svg" xmlns:xlink="http://www.w3.org/1999/xlink">
    <!-- Generator: Sketch 43.2 (39069) - http://www.bohemiancoding.com/sketch -->
    <title>androids</title>
    <desc>Created with Sketch.</desc>
    <defs></defs>
    <g id="Page-1" stroke="none" stroke-width="1" fill="none" fill-rule="evenodd">
        <g id="android1" transform="translate(628.000000, 404.000000)" fill-rule="nonzero">
            <ellipse id="Oval" fill="#1EA0C5" transform="translate(14.244517, 10.797931) rotate(-86.000144) translate(-14.244517, -10.797931) " cx="14.2445172" cy="10.7979309" rx="7.60027255" ry="8.20029407"></ellipse>
            <path d="M14.8,3.3 L14.8,3.5 C17,3.7 18.9,4.6 20.3,6 C21,6.7 21.5,7.5 21.8,8.4 C22.1,9.3 22.3,10.3 22.2,11.3 C22.1,12.3 21.8,13.3 21.4,14.1 C20.7,15.4 19.6,16.4 18.3,17.1 C17,17.8 15.4,18.2 13.8,18 C11.6,17.8 9.7,16.9 8.3,15.5 C7.6,14.8 7.1,14 6.8,13.1 C6.5,12.2 6.3,11.2 6.4,10.2 C6.5,9.2 6.8,8.2 7.2,7.4 C7.9,6.1 9,5.1 10.3,4.4 C11.6,3.7 13.2,3.3 14.8,3.5 L14.8,3.3 L14.8,3.1 C12.5,2.9 10.3,3.7 8.7,5 C7.9,5.6 7.2,6.4 6.7,7.3 C6.2,8.2 5.9,9.2 5.8,10.3 C5.7,11.4 5.9,12.4 6.3,13.4 C6.8,14.8 7.8,16.1 9.1,17 C10.4,17.9 12,18.5 13.7,18.6 C16,18.8 18.2,18 19.8,16.7 C20.6,16.1 21.3,15.3 21.8,14.4 C22.3,13.5 22.6,12.5 22.7,11.4 C22.8,10.3 22.6,9.3 22.2,8.3 C21.7,6.9 20.7,5.6 19.4,4.7 C18.1,3.8 16.5,3.2 14.8,3.1 L14.8,3.3 Z" id="Shape" fill="#FFFFFF"></path>
            <path d="M8.2,8.5 L20.6,9.4 C21.7,9.5 22.5,10.4 22.4,11.5 L21.5,23.9 C21.4,25 20.5,25.8 19.4,25.7 L7,24.8 C5.9,24.7 5.1,23.8 5.2,22.7 L6.1,10.3 C6.2,9.3 7.1,8.5 8.2,8.5 Z" id="Shape" fill="#1EA0C5"></path>
            <path d="M8.2,8.5 L8.2,8.7 L20.6,9.6 C20.8,9.6 21.1,9.7 21.3,9.8 C21.6,10 21.9,10.2 22,10.5 C22.2,10.8 22.3,11.1 22.2,11.5 L21.3,23.9 C21.3,24.1 21.2,24.4 21.1,24.6 C20.9,24.9 20.7,25.2 20.4,25.3 C20.1,25.5 19.8,25.6 19.4,25.5 L7,24.6 C6.8,24.6 6.5,24.5 6.3,24.4 C6,24.2 5.7,24 5.6,23.7 C5.4,23.4 5.3,23.1 5.4,22.7 L6.3,10.3 C6.3,10.1 6.4,9.8 6.5,9.6 C6.7,9.3 6.9,9 7.2,8.9 C7.5,8.7 7.8,8.6 8.2,8.7 L8.2,8.5 L8.2,8.3 C7.9,8.3 7.6,8.3 7.3,8.4 C6.9,8.5 6.5,8.8 6.3,9.1 C6,9.4 5.9,9.8 5.8,10.3 L4.9,22.7 C4.9,23 4.9,23.3 5,23.6 C5.1,24 5.4,24.4 5.7,24.6 C6,24.9 6.4,25 6.9,25.1 L19.3,26 C19.6,26 19.9,26 20.2,25.9 C20.6,25.8 21,25.5 21.2,25.2 C21.5,24.9 21.6,24.5 21.7,24 L22.6,11.6 C22.6,11.3 22.6,11 22.5,10.7 C22.4,10.3 22.1,9.9 21.8,9.7 C21.5,9.4 21.1,9.3 20.6,9.2 L8.2,8.3 L8.2,8.5 Z" id="Shape" fill="#FFFFFF"></path>
            <path d="M9.6,0.9 L9.6,0.9 C9.3,1 9.2,1.4 9.3,1.7 L12.1,7.7 C12.2,8 12.6,8.1 12.9,8 C13.2,7.9 13.3,7.5 13.2,7.2 L10.4,1.2 C10.2,0.9 9.9,0.8 9.6,0.9 Z" id="Shape" fill="#1EA0C5"></path>
            <path d="M9.6,0.9 L9.6,0.9 C9.4,0.9 9.3,0.9 9.3,1 C9.2,1.1 9.2,1.2 9.2,1.3 C9.2,1.4 9.2,1.5 9.3,1.6 L12.1,7.6 C12.2,7.7 12.2,7.8 12.3,7.9 C12.4,8 12.5,8 12.6,8 C12.7,8 12.8,8 12.9,7.9 C13,7.8 13.1,7.8 13.2,7.7 C13.3,7.6 13.3,7.5 13.3,7.4 C13.3,7.3 13.3,7.2 13.2,7.1 L10.4,1.1 C10.3,1 10.3,0.9 10.2,0.8 C10.1,0.7 10,0.7 9.9,0.7 C9.8,0.8 9.7,0.8 9.6,0.9 L9.6,0.9 L9.6,0.9 C9.7,1 9.8,0.9 9.9,1 C10,1 10.1,1 10.1,1.1 C10.2,1.1 10.2,1.2 10.3,1.3 L13.1,7.3 L13.1,7.5 C13.1,7.6 13.1,7.7 13,7.7 C13,7.8 12.9,7.8 12.8,7.9 L12.6,7.9 C12.5,7.9 12.4,7.9 12.4,7.8 C12.3,7.8 12.3,7.7 12.2,7.6 L9.4,1.6 L9.4,1.4 C9.4,1.3 9.4,1.2 9.5,1.2 C9.5,1.1 9.6,1.1 9.6,0.9 L9.6,0.9 Z" id="Shape" fill="#FFFFFF"></path>
            <path d="M25,11.6 L25,11.6 C23.8,11.5 22.8,12.4 22.7,13.6 L22.2,21.2 C22.1,22.4 23,23.4 24.2,23.5 C25.4,23.6 26.4,22.7 26.5,21.5 L27,13.9 C27,12.7 26.2,11.7 25,11.6 Z" id="Shape" fill="#1EA0C5"></path>
            <path d="M25,11.6 L25,11.5 C24.4,11.5 23.8,11.7 23.4,12.1 C23,12.5 22.7,13 22.6,13.7 L22.1,21.3 C22.1,21.9 22.3,22.5 22.7,22.9 C23.1,23.3 23.6,23.6 24.3,23.7 C24.9,23.7 25.5,23.5 25.9,23.1 C26.3,22.7 26.6,22.2 26.7,21.5 L27.2,13.9 C27.2,13.3 27,12.7 26.6,12.3 C26.2,11.9 25.7,11.6 25,11.5 L25,11.6 L25,11.7 C25.6,11.7 26.1,12 26.4,12.4 C26.7,12.8 26.9,13.3 26.9,13.9 L26.4,21.5 C26.4,22.1 26.1,22.6 25.7,22.9 C25.3,23.2 24.8,23.4 24.2,23.4 C23.6,23.4 23.1,23.1 22.8,22.7 C22.5,22.3 22.3,21.8 22.3,21.2 L22.8,13.6 C22.8,13 23.1,12.5 23.5,12.2 C23.9,11.9 24.4,11.7 25,11.7 L25,11.6 Z" id="Shape" fill="#FFFFFF"></path>
            <path d="M16.7,19.8 L16.7,19.8 C15.5,19.7 14.5,20.6 14.4,21.8 L13.9,29.4 C13.8,30.6 14.7,31.6 15.9,31.7 C17.1,31.8 18.1,30.9 18.2,29.7 L18.7,22.1 C18.8,20.9 17.9,19.9 16.7,19.8 Z" id="Shape" fill="#1EA0C5"></path>
            <path d="M16.7,19.8 L16.7,19.7 C16.1,19.7 15.5,19.9 15.1,20.3 C14.7,20.7 14.4,21.2 14.3,21.9 L13.8,29.5 C13.8,30.1 14,30.7 14.4,31.1 C14.8,31.5 15.3,31.8 16,31.9 C16.6,31.9 17.2,31.7 17.6,31.3 C18,30.9 18.3,30.4 18.4,29.7 L18.9,22.1 C18.9,21.5 18.7,20.9 18.3,20.5 C17.9,20.1 17.4,19.8 16.7,19.7 L16.7,19.8 L16.7,19.9 C17.3,19.9 17.8,20.2 18.1,20.6 C18.4,21 18.6,21.5 18.6,22.1 L18.1,29.7 C18.1,30.3 17.8,30.8 17.4,31.1 C17,31.4 16.5,31.6 15.9,31.6 C15.3,31.6 14.8,31.3 14.5,30.9 C14.2,30.5 14,30 14,29.4 L14.5,21.8 C14.5,21.2 14.8,20.7 15.2,20.4 C15.6,20.1 16.1,19.9 16.7,19.9 L16.7,19.8 Z" id="Shape" fill="#FFFFFF"></path>
            <path d="M20.3,1.7 L20.3,1.7 C20.6,1.9 20.6,2.2 20.5,2.5 L16.9,8 C16.7,8.3 16.4,8.3 16.1,8.2 C15.8,8 15.8,7.7 15.9,7.4 L19.5,1.9 C19.7,1.6 20,1.5 20.3,1.7 Z" id="Shape" fill="#1EA0C5"></path>
            <path d="M20.3,1.7 L20.3,1.7 C20.3,1.8 20.4,1.9 20.4,2 C20.4,2.1 20.5,2.2 20.4,2.2 C20.4,2.3 20.4,2.4 20.3,2.4 L16.7,7.9 C16.7,8 16.6,8 16.5,8.1 C16.4,8.1 16.3,8.2 16.3,8.1 C16.2,8.1 16.1,8.1 16.1,8 C16,8 16,7.9 15.9,7.8 C15.9,7.7 15.8,7.6 15.9,7.6 C15.9,7.5 15.9,7.4 16,7.4 L19.6,1.9 C19.6,1.8 19.7,1.8 19.8,1.7 C19.9,1.7 20,1.6 20,1.7 L20.3,1.7 L20.3,1.7 L20.3,1.7 C20.3,1.5 20.1,1.5 20,1.5 C19.9,1.5 19.8,1.5 19.6,1.6 C19.5,1.7 19.4,1.7 19.3,1.8 L15.7,7.3 C15.6,7.4 15.6,7.5 15.6,7.6 C15.6,7.7 15.6,7.8 15.7,8 C15.8,8.1 15.8,8.2 15.9,8.3 C16,8.4 16.1,8.4 16.2,8.4 C16.3,8.4 16.4,8.4 16.6,8.3 C16.7,8.2 16.8,8.2 16.9,8.1 L20.5,2.6 L20.5,2.6 C20.6,2.5 20.6,2.4 20.6,2.3 C20.6,2.2 20.6,2.1 20.5,1.9 C20.4,1.7 20.5,1.7 20.3,1.7 L20.3,1.7 Z" id="Shape" fill="#FFFFFF"></path>
            <path d="M3.6,10.1 L3.6,10.1 C4.8,10.2 5.7,11.2 5.6,12.4 L5.1,20 C5,21.2 4,22.1 2.8,22 C1.6,21.9 0.7,20.9 0.8,19.7 L1.3,12.1 C1.4,10.9 2.4,10 3.6,10.1 Z" id="Shape" fill="#1EA0C5"></path>
            <path d="M3.6,10.1 L3.6,10.2 C4.2,10.2 4.7,10.5 5,10.9 C5.3,11.3 5.5,11.8 5.5,12.4 L5,20 C5,20.6 4.7,21.1 4.3,21.4 C3.9,21.7 3.4,21.9 2.8,21.9 C2.2,21.9 1.7,21.6 1.4,21.2 C1.1,20.8 0.9,20.3 0.9,19.7 L1.4,12.1 C1.4,11.5 1.7,11 2.1,10.7 C2.5,10.4 3,10.2 3.6,10.2 L3.6,10.1 L3.6,10 C3,10 2.4,10.2 2,10.6 C1.6,11 1.3,11.5 1.2,12.2 L0.7,19.8 C0.7,20.4 0.9,21 1.3,21.4 C1.7,21.8 2.2,22.1 2.9,22.2 C3.5,22.2 4.1,22 4.5,21.6 C4.9,21.2 5.2,20.7 5.3,20 L5.8,12.4 C5.8,11.8 5.6,11.2 5.2,10.8 C4.8,10.4 4.3,10.1 3.6,10 L3.6,10.1 Z" id="Shape" fill="#FFFFFF"></path>
            <path d="M10.6,19.3 L10.6,19.3 C11.8,19.4 12.7,20.4 12.6,21.6 L12.1,29.2 C12,30.4 11,31.3 9.8,31.2 C8.6,31.1 7.7,30.1 7.8,28.9 L8.3,21.3 C8.4,20.2 9.4,19.3 10.6,19.3 Z" id="Shape" fill="#1EA0C5"></path>
            <path d="M10.6,19.3 L10.6,19.4 C11.2,19.4 11.7,19.7 12,20.1 C12.3,20.5 12.5,21 12.5,21.6 L12,29.2 C12,29.8 11.7,30.3 11.3,30.6 C10.9,30.9 10.4,31.1 9.8,31.1 C9.2,31.1 8.7,30.8 8.4,30.4 C8.1,30 7.9,29.5 7.9,28.9 L8.4,21.3 C8.4,20.7 8.7,20.2 9.1,19.9 C9.5,19.6 10,19.4 10.6,19.4 L10.6,19.3 L10.6,19.2 C10,19.2 9.4,19.4 9,19.8 C8.6,20.2 8.3,20.7 8.2,21.4 L7.7,29 C7.7,29.6 7.9,30.2 8.3,30.6 C8.7,31 9.2,31.3 9.9,31.4 C10.5,31.4 11.1,31.2 11.5,30.8 C11.9,30.4 12.2,29.9 12.3,29.2 L12.8,21.6 C12.8,21 12.6,20.4 12.2,20 C11.8,19.6 11.3,19.3 10.6,19.2 L10.6,19.3 Z" id="Shape" fill="#FFFFFF"></path>
            <ellipse id="Oval" fill="#1EA0C5" transform="translate(14.244517, 10.797931) rotate(-86.000144) translate(-14.244517, -10.797931) " cx="14.2445172" cy="10.7979309" rx="7.60027255" ry="8.20029407"></ellipse>
            <path d="M8.2,8.5 L20.6,9.4 C21.7,9.5 22.5,10.4 22.4,11.5 L21.5,23.9 C21.4,25 20.5,25.8 19.4,25.7 L7,24.8 C5.9,24.7 5.1,23.8 5.2,22.7 L6.1,10.3 C6.2,9.3 7.1,8.5 8.2,8.5 Z" id="Shape" fill="#1EA0C5"></path>
            <path d="M5.7,10.6 L22.8,11.8" id="Shape" fill="#FFFFFF"></path>
            <polyline id="Shape" fill="#FFFFFF" points="5.7 10.7 22.8 11.9 22.8 11.6 5.7 10.5"></polyline>
            <circle id="Oval" fill="#FFFFFF" transform="translate(10.883265, 6.750296) rotate(-86.000144) translate(-10.883265, -6.750296) " cx="10.7832616" cy="6.6502927" r="1"></circle>
            <path d="M10.8,6.5 L10.8,6.6 C10.9,6.6 10.9,6.6 11,6.7 C11,6.7 11.1,6.8 11.1,6.9 C11.1,7 11.1,7 11,7.1 C11,7.1 10.9,7.2 10.8,7.2 C10.7,7.2 10.7,7.2 10.6,7.1 C10.6,7.1 10.5,7 10.5,6.9 C10.5,6.8 10.5,6.8 10.6,6.7 C10.6,6.7 10.7,6.6 10.8,6.6 L10.8,6.5 L10.8,6.4 C10.7,6.4 10.6,6.4 10.5,6.5 C10.4,6.6 10.3,6.7 10.3,6.8 C10.3,6.9 10.3,7 10.4,7.1 C10.5,7.2 10.6,7.3 10.7,7.3 C10.8,7.3 10.9,7.3 11,7.2 C11.1,7.1 11.2,7 11.2,6.9 C11.2,6.8 11.2,6.7 11.1,6.6 C11,6.5 10.9,6.4 10.8,6.4 L10.8,6.5 Z" id="Shape" fill="#FFFFFF"></path>
            <circle id="Oval" fill="#FFFFFF" transform="translate(18.394639, 7.316975) rotate(-86.000144) translate(-18.394639, -7.316975) " cx="18.2946351" cy="7.21697094" r="1"></circle>
            <path d="M18.3,7.1 L18.3,7.2 C18.4,7.2 18.4,7.2 18.5,7.3 C18.5,7.3 18.6,7.4 18.6,7.5 C18.6,7.6 18.6,7.6 18.5,7.7 C18.5,7.7 18.4,7.8 18.3,7.8 C18.2,7.8 18.2,7.8 18.1,7.7 C18.1,7.7 18,7.6 18,7.5 C18,7.4 18,7.4 18.1,7.3 C18.1,7.3 18.2,7.2 18.3,7.2 L18.3,7.1 L18.3,7 C18.2,7 18.1,7 18,7.1 C17.9,7.2 17.8,7.3 17.8,7.4 C17.8,7.5 17.8,7.6 17.9,7.7 C18,7.8 18.1,7.9 18.2,7.9 C18.3,7.9 18.4,7.9 18.5,7.8 C18.6,7.7 18.7,7.6 18.7,7.5 C18.7,7.4 18.7,7.3 18.6,7.2 C18.5,7.1 18.4,7 18.3,7 L18.3,7.1 Z" id="Shape" fill="#FFFFFF"></path>
        </g>
        <g id="android3" transform="translate(691.000000, 291.500000) rotate(-37.000000) translate(-691.000000, -291.500000) translate(679.000000, 278.000000)" fill-rule="nonzero">
            <ellipse id="Oval" fill="#1EA0C5" transform="translate(12.209586, 9.110754) rotate(-86.000144) translate(-12.209586, -9.110754) " cx="12.2095861" cy="9.11075418" rx="6.51451933" ry="6.91899812"></ellipse>
            <path d="M12.6857143,2.784375 L12.6857143,2.953125 C14.5714286,3.121875 16.2,3.88125 17.4,5.0625 C18,5.653125 18.4285714,6.328125 18.6857143,7.0875 C18.9428571,7.846875 19.1142857,8.690625 19.0285714,9.534375 C18.9428571,10.378125 18.6857143,11.221875 18.3428571,11.896875 C17.7428571,12.99375 16.8,13.8375 15.6857143,14.428125 C14.5714286,15.01875 13.2,15.35625 11.8285714,15.1875 C9.94285714,15.01875 8.31428571,14.259375 7.11428571,13.078125 C6.51428571,12.4875 6.08571429,11.8125 5.82857143,11.053125 C5.57142857,10.29375 5.4,9.45 5.48571429,8.60625 C5.57142857,7.7625 5.82857143,6.91875 6.17142857,6.24375 C6.77142857,5.146875 7.71428571,4.303125 8.82857143,3.7125 C9.94285714,3.121875 11.3142857,2.784375 12.6857143,2.953125 L12.6857143,2.784375 L12.6857143,2.615625 C10.7142857,2.446875 8.82857143,3.121875 7.45714286,4.21875 C6.77142857,4.725 6.17142857,5.4 5.74285714,6.159375 C5.31428571,6.91875 5.05714286,7.7625 4.97142857,8.690625 C4.88571429,9.61875 5.05714286,10.4625 5.4,11.30625 C5.82857143,12.4875 6.68571429,13.584375 7.8,14.34375 C8.91428571,15.103125 10.2857143,15.609375 11.7428571,15.69375 C13.7142857,15.8625 15.6,15.1875 16.9714286,14.090625 C17.6571429,13.584375 18.2571429,12.909375 18.6857143,12.15 C19.1142857,11.390625 19.3714286,10.546875 19.4571429,9.61875 C19.5428571,8.690625 19.3714286,7.846875 19.0285714,7.003125 C18.6,5.821875 17.7428571,4.725 16.6285714,3.965625 C15.5142857,3.20625 14.1428571,2.7 12.6857143,2.615625 L12.6857143,2.784375 Z" id="Shape" fill="#FFFFFF"></path>
            <path d="M7.02857143,7.171875 L17.6571429,7.93125 C18.6,8.015625 19.2857143,8.775 19.2,9.703125 L18.4285714,20.165625 C18.3428571,21.09375 17.5714286,21.76875 16.6285714,21.684375 L6,20.925 C5.05714286,20.840625 4.37142857,20.08125 4.45714286,19.153125 L5.22857143,8.690625 C5.31428571,7.846875 6.08571429,7.171875 7.02857143,7.171875 Z" id="Shape" fill="#1EA0C5"></path>
            <path d="M7.02857143,7.171875 L7.02857143,7.340625 L17.6571429,8.1 C17.8285714,8.1 18.0857143,8.184375 18.2571429,8.26875 C18.5142857,8.4375 18.7714286,8.60625 18.8571429,8.859375 C19.0285714,9.1125 19.1142857,9.365625 19.0285714,9.703125 L18.2571429,20.165625 C18.2571429,20.334375 18.1714286,20.5875 18.0857143,20.75625 C17.9142857,21.009375 17.7428571,21.2625 17.4857143,21.346875 C17.2285714,21.515625 16.9714286,21.6 16.6285714,21.515625 L6,20.75625 C5.82857143,20.75625 5.57142857,20.671875 5.4,20.5875 C5.14285714,20.41875 4.88571429,20.25 4.8,19.996875 C4.62857143,19.74375 4.54285714,19.490625 4.62857143,19.153125 L5.4,8.690625 C5.4,8.521875 5.48571429,8.26875 5.57142857,8.1 C5.74285714,7.846875 5.91428571,7.59375 6.17142857,7.509375 C6.42857143,7.340625 6.68571429,7.25625 7.02857143,7.340625 L7.02857143,7.171875 L7.02857143,7.003125 C6.77142857,7.003125 6.51428571,7.003125 6.25714286,7.0875 C5.91428571,7.171875 5.57142857,7.425 5.4,7.678125 C5.14285714,7.93125 5.05714286,8.26875 4.97142857,8.690625 L4.2,19.153125 C4.2,19.40625 4.2,19.659375 4.28571429,19.9125 C4.37142857,20.25 4.62857143,20.5875 4.88571429,20.75625 C5.14285714,21.009375 5.48571429,21.09375 5.91428571,21.178125 L16.5428571,21.9375 C16.8,21.9375 17.0571429,21.9375 17.3142857,21.853125 C17.6571429,21.76875 18,21.515625 18.1714286,21.2625 C18.4285714,21.009375 18.5142857,20.671875 18.6,20.25 L19.3714286,9.7875 C19.3714286,9.534375 19.3714286,9.28125 19.2857143,9.028125 C19.2,8.690625 18.9428571,8.353125 18.6857143,8.184375 C18.4285714,7.93125 18.0857143,7.846875 17.6571429,7.7625 L7.02857143,7.003125 L7.02857143,7.171875 Z" id="Shape" fill="#FFFFFF"></path>
            <path d="M8.22857143,0.759375 L8.22857143,0.759375 C7.97142857,0.84375 7.88571429,1.18125 7.97142857,1.434375 L10.3714286,6.496875 C10.4571429,6.75 10.8,6.834375 11.0571429,6.75 C11.3142857,6.665625 11.4,6.328125 11.3142857,6.075 L8.91428571,1.0125 C8.74285714,0.759375 8.48571429,0.675 8.22857143,0.759375 Z" id="Shape" fill="#1EA0C5"></path>
            <path d="M8.22857143,0.759375 L8.22857143,0.759375 C8.05714286,0.759375 7.97142857,0.759375 7.97142857,0.84375 C7.88571429,0.928125 7.88571429,1.0125 7.88571429,1.096875 C7.88571429,1.18125 7.88571429,1.265625 7.97142857,1.35 L10.3714286,6.4125 C10.4571429,6.496875 10.4571429,6.58125 10.5428571,6.665625 C10.6285714,6.75 10.7142857,6.75 10.8,6.75 C10.8857143,6.75 10.9714286,6.75 11.0571429,6.665625 C11.1428571,6.58125 11.2285714,6.58125 11.3142857,6.496875 C11.4,6.4125 11.4,6.328125 11.4,6.24375 C11.4,6.159375 11.4,6.075 11.3142857,5.990625 L8.91428571,0.928125 C8.82857143,0.84375 8.82857143,0.759375 8.74285714,0.675 C8.65714286,0.590625 8.57142857,0.590625 8.48571429,0.590625 C8.4,0.675 8.31428571,0.675 8.22857143,0.759375 L8.22857143,0.759375 L8.22857143,0.759375 C8.31428571,0.84375 8.4,0.759375 8.48571429,0.84375 C8.57142857,0.84375 8.65714286,0.84375 8.65714286,0.928125 C8.74285714,0.928125 8.74285714,1.0125 8.82857143,1.096875 L11.2285714,6.159375 L11.2285714,6.328125 C11.2285714,6.4125 11.2285714,6.496875 11.1428571,6.496875 C11.1428571,6.58125 11.0571429,6.58125 10.9714286,6.665625 L10.8,6.665625 C10.7142857,6.665625 10.6285714,6.665625 10.6285714,6.58125 C10.5428571,6.58125 10.5428571,6.496875 10.4571429,6.4125 L8.05714286,1.35 L8.05714286,1.18125 C8.05714286,1.096875 8.05714286,1.0125 8.14285714,1.0125 C8.14285714,0.928125 8.22857143,0.928125 8.22857143,0.759375 L8.22857143,0.759375 Z" id="Shape" fill="#FFFFFF"></path>
            <path d="M21.4285714,9.7875 L21.4285714,9.7875 C20.4,9.703125 19.5428571,10.4625 19.4571429,11.475 L19.0285714,17.8875 C18.9428571,18.9 19.7142857,19.74375 20.7428571,19.828125 C21.7714286,19.9125 22.6285714,19.153125 22.7142857,18.140625 L23.1428571,11.728125 C23.1428571,10.715625 22.4571429,9.871875 21.4285714,9.7875 Z" id="Shape" fill="#1EA0C5"></path>
            <path d="M21.4285714,9.7875 L21.4285714,9.703125 C20.9142857,9.703125 20.4,9.871875 20.0571429,10.209375 C19.7142857,10.546875 19.4571429,10.96875 19.3714286,11.559375 L18.9428571,17.971875 C18.9428571,18.478125 19.1142857,18.984375 19.4571429,19.321875 C19.8,19.659375 20.2285714,19.9125 20.8285714,19.996875 C21.3428571,19.996875 21.8571429,19.828125 22.2,19.490625 C22.5428571,19.153125 22.8,18.73125 22.8857143,18.140625 L23.3142857,11.728125 C23.3142857,11.221875 23.1428571,10.715625 22.8,10.378125 C22.4571429,10.040625 22.0285714,9.7875 21.4285714,9.703125 L21.4285714,9.7875 L21.4285714,9.871875 C21.9428571,9.871875 22.3714286,10.125 22.6285714,10.4625 C22.8857143,10.8 23.0571429,11.221875 23.0571429,11.728125 L22.6285714,18.140625 C22.6285714,18.646875 22.3714286,19.06875 22.0285714,19.321875 C21.6857143,19.575 21.2571429,19.74375 20.7428571,19.74375 C20.2285714,19.74375 19.8,19.490625 19.5428571,19.153125 C19.2857143,18.815625 19.1142857,18.39375 19.1142857,17.8875 L19.5428571,11.475 C19.5428571,10.96875 19.8,10.546875 20.1428571,10.29375 C20.4857143,10.040625 20.9142857,9.871875 21.4285714,9.871875 L21.4285714,9.7875 Z" id="Shape" fill="#FFFFFF"></path>
            <path d="M14.3142857,16.70625 L14.3142857,16.70625 C13.2857143,16.621875 12.4285714,17.38125 12.3428571,18.39375 L11.9142857,24.80625 C11.8285714,25.81875 12.6,26.6625 13.6285714,26.746875 C14.6571429,26.83125 15.5142857,26.071875 15.6,25.059375 L16.0285714,18.646875 C16.1142857,17.634375 15.3428571,16.790625 14.3142857,16.70625 Z" id="Shape" fill="#1EA0C5"></path>
            <path d="M14.3142857,16.70625 L14.3142857,16.621875 C13.8,16.621875 13.2857143,16.790625 12.9428571,17.128125 C12.6,17.465625 12.3428571,17.8875 12.2571429,18.478125 L11.8285714,24.890625 C11.8285714,25.396875 12,25.903125 12.3428571,26.240625 C12.6857143,26.578125 13.1142857,26.83125 13.7142857,26.915625 C14.2285714,26.915625 14.7428571,26.746875 15.0857143,26.409375 C15.4285714,26.071875 15.6857143,25.65 15.7714286,25.059375 L16.2,18.646875 C16.2,18.140625 16.0285714,17.634375 15.6857143,17.296875 C15.3428571,16.959375 14.9142857,16.70625 14.3142857,16.621875 L14.3142857,16.70625 L14.3142857,16.790625 C14.8285714,16.790625 15.2571429,17.04375 15.5142857,17.38125 C15.7714286,17.71875 15.9428571,18.140625 15.9428571,18.646875 L15.5142857,25.059375 C15.5142857,25.565625 15.2571429,25.9875 14.9142857,26.240625 C14.5714286,26.49375 14.1428571,26.6625 13.6285714,26.6625 C13.1142857,26.6625 12.6857143,26.409375 12.4285714,26.071875 C12.1714286,25.734375 12,25.3125 12,24.80625 L12.4285714,18.39375 C12.4285714,17.8875 12.6857143,17.465625 13.0285714,17.2125 C13.3714286,16.959375 13.8,16.790625 14.3142857,16.790625 L14.3142857,16.70625 Z" id="Shape" fill="#FFFFFF"></path>
            <path d="M17.4,1.434375 L17.4,1.434375 C17.6571429,1.603125 17.6571429,1.85625 17.5714286,2.109375 L14.4857143,6.75 C14.3142857,7.003125 14.0571429,7.003125 13.8,6.91875 C13.5428571,6.75 13.5428571,6.496875 13.6285714,6.24375 L16.7142857,1.603125 C16.8857143,1.35 17.1428571,1.265625 17.4,1.434375 Z" id="Shape" fill="#1EA0C5"></path>
            <path d="M17.4,1.434375 L17.4,1.434375 C17.4,1.51875 17.4857143,1.603125 17.4857143,1.6875 C17.4857143,1.771875 17.5714286,1.85625 17.4857143,1.85625 C17.4857143,1.940625 17.4857143,2.025 17.4,2.025 L14.3142857,6.665625 C14.3142857,6.75 14.2285714,6.75 14.1428571,6.834375 C14.0571429,6.834375 13.9714286,6.91875 13.9714286,6.834375 C13.8857143,6.834375 13.8,6.834375 13.8,6.75 C13.7142857,6.75 13.7142857,6.665625 13.6285714,6.58125 C13.6285714,6.496875 13.5428571,6.4125 13.6285714,6.4125 C13.6285714,6.328125 13.6285714,6.24375 13.7142857,6.24375 L16.8,1.603125 C16.8,1.51875 16.8857143,1.51875 16.9714286,1.434375 C17.0571429,1.434375 17.1428571,1.35 17.1428571,1.434375 L17.4,1.434375 L17.4,1.434375 L17.4,1.434375 C17.4,1.265625 17.2285714,1.265625 17.1428571,1.265625 C17.0571429,1.265625 16.9714286,1.265625 16.8,1.35 C16.7142857,1.434375 16.6285714,1.434375 16.5428571,1.51875 L13.4571429,6.159375 C13.3714286,6.24375 13.3714286,6.328125 13.3714286,6.4125 C13.3714286,6.496875 13.3714286,6.58125 13.4571429,6.75 C13.5428571,6.834375 13.5428571,6.91875 13.6285714,7.003125 C13.7142857,7.0875 13.8,7.0875 13.8857143,7.0875 C13.9714286,7.0875 14.0571429,7.0875 14.2285714,7.003125 C14.3142857,6.91875 14.4,6.91875 14.4857143,6.834375 L17.5714286,2.19375 L17.5714286,2.19375 C17.6571429,2.109375 17.6571429,2.025 17.6571429,1.940625 C17.6571429,1.85625 17.6571429,1.771875 17.5714286,1.603125 C17.4857143,1.434375 17.5714286,1.434375 17.4,1.434375 L17.4,1.434375 Z" id="Shape" fill="#FFFFFF"></path>
            <path d="M3.08571429,8.521875 L3.08571429,8.521875 C4.11428571,8.60625 4.88571429,9.45 4.8,10.4625 L4.37142857,16.875 C4.28571429,17.8875 3.42857143,18.646875 2.4,18.5625 C1.37142857,18.478125 0.6,17.634375 0.685714286,16.621875 L1.11428571,10.209375 C1.2,9.196875 2.05714286,8.4375 3.08571429,8.521875 Z" id="Shape" fill="#1EA0C5"></path>
            <path d="M3.08571429,8.521875 L3.08571429,8.60625 C3.6,8.60625 4.02857143,8.859375 4.28571429,9.196875 C4.54285714,9.534375 4.71428571,9.95625 4.71428571,10.4625 L4.28571429,16.875 C4.28571429,17.38125 4.02857143,17.803125 3.68571429,18.05625 C3.34285714,18.309375 2.91428571,18.478125 2.4,18.478125 C1.88571429,18.478125 1.45714286,18.225 1.2,17.8875 C0.942857143,17.55 0.771428571,17.128125 0.771428571,16.621875 L1.2,10.209375 C1.2,9.703125 1.45714286,9.28125 1.8,9.028125 C2.14285714,8.775 2.57142857,8.60625 3.08571429,8.60625 L3.08571429,8.521875 L3.08571429,8.4375 C2.57142857,8.4375 2.05714286,8.60625 1.71428571,8.94375 C1.37142857,9.28125 1.11428571,9.703125 1.02857143,10.29375 L0.6,16.70625 C0.6,17.2125 0.771428571,17.71875 1.11428571,18.05625 C1.45714286,18.39375 1.88571429,18.646875 2.48571429,18.73125 C3,18.73125 3.51428571,18.5625 3.85714286,18.225 C4.2,17.8875 4.45714286,17.465625 4.54285714,16.875 L4.97142857,10.4625 C4.97142857,9.95625 4.8,9.45 4.45714286,9.1125 C4.11428571,8.775 3.68571429,8.521875 3.08571429,8.4375 L3.08571429,8.521875 Z" id="Shape" fill="#FFFFFF"></path>
            <path d="M9.08571429,16.284375 L9.08571429,16.284375 C10.1142857,16.36875 10.8857143,17.2125 10.8,18.225 L10.3714286,24.6375 C10.2857143,25.65 9.42857143,26.409375 8.4,26.325 C7.37142857,26.240625 6.6,25.396875 6.68571429,24.384375 L7.11428571,17.971875 C7.2,17.04375 8.05714286,16.284375 9.08571429,16.284375 Z" id="Shape" fill="#1EA0C5"></path>
            <path d="M9.08571429,16.284375 L9.08571429,16.36875 C9.6,16.36875 10.0285714,16.621875 10.2857143,16.959375 C10.5428571,17.296875 10.7142857,17.71875 10.7142857,18.225 L10.2857143,24.6375 C10.2857143,25.14375 10.0285714,25.565625 9.68571429,25.81875 C9.34285714,26.071875 8.91428571,26.240625 8.4,26.240625 C7.88571429,26.240625 7.45714286,25.9875 7.2,25.65 C6.94285714,25.3125 6.77142857,24.890625 6.77142857,24.384375 L7.2,17.971875 C7.2,17.465625 7.45714286,17.04375 7.8,16.790625 C8.14285714,16.5375 8.57142857,16.36875 9.08571429,16.36875 L9.08571429,16.284375 L9.08571429,16.2 C8.57142857,16.2 8.05714286,16.36875 7.71428571,16.70625 C7.37142857,17.04375 7.11428571,17.465625 7.02857143,18.05625 L6.6,24.46875 C6.6,24.975 6.77142857,25.48125 7.11428571,25.81875 C7.45714286,26.15625 7.88571429,26.409375 8.48571429,26.49375 C9,26.49375 9.51428571,26.325 9.85714286,25.9875 C10.2,25.65 10.4571429,25.228125 10.5428571,24.6375 L10.9714286,18.225 C10.9714286,17.71875 10.8,17.2125 10.4571429,16.875 C10.1142857,16.5375 9.68571429,16.284375 9.08571429,16.2 L9.08571429,16.284375 Z" id="Shape" fill="#FFFFFF"></path>
            <ellipse id="Oval" fill="#1EA0C5" transform="translate(12.209586, 9.110754) rotate(-86.000144) translate(-12.209586, -9.110754) " cx="12.2095861" cy="9.11075418" rx="6.51451933" ry="6.91899812"></ellipse>
            <path d="M7.02857143,7.171875 L17.6571429,7.93125 C18.6,8.015625 19.2857143,8.775 19.2,9.703125 L18.4285714,20.165625 C18.3428571,21.09375 17.5714286,21.76875 16.6285714,21.684375 L6,20.925 C5.05714286,20.840625 4.37142857,20.08125 4.45714286,19.153125 L5.22857143,8.690625 C5.31428571,7.846875 6.08571429,7.171875 7.02857143,7.171875 Z" id="Shape" fill="#1EA0C5"></path>
            <path d="M4.88571429,8.94375 L19.5428571,9.95625" id="Shape" fill="#FFFFFF"></path>
            <polyline id="Shape" fill="#FFFFFF" points="4.88571429 9.028125 19.5428571 10.040625 19.5428571 9.7875 4.88571429 8.859375"></polyline>
            <ellipse id="Oval" fill="#FFFFFF" transform="translate(9.328513, 5.695562) rotate(-86.000144) translate(-9.328513, -5.695562) " cx="9.24279563" cy="5.61118447" rx="1" ry="1"></ellipse>
            <path d="M9.25714286,5.484375 L9.25714286,5.56875 C9.34285714,5.56875 9.34285714,5.56875 9.42857143,5.653125 C9.42857143,5.653125 9.51428571,5.7375 9.51428571,5.821875 C9.51428571,5.90625 9.51428571,5.90625 9.42857143,5.990625 C9.42857143,5.990625 9.34285714,6.075 9.25714286,6.075 C9.17142857,6.075 9.17142857,6.075 9.08571429,5.990625 C9.08571429,5.990625 9,5.90625 9,5.821875 C9,5.7375 9,5.7375 9.08571429,5.653125 C9.08571429,5.653125 9.17142857,5.56875 9.25714286,5.56875 L9.25714286,5.484375 L9.25714286,5.4 C9.17142857,5.4 9.08571429,5.4 9,5.484375 C8.91428571,5.56875 8.82857143,5.653125 8.82857143,5.7375 C8.82857143,5.821875 8.82857143,5.90625 8.91428571,5.990625 C9,6.075 9.08571429,6.159375 9.17142857,6.159375 C9.25714286,6.159375 9.34285714,6.159375 9.42857143,6.075 C9.51428571,5.990625 9.6,5.90625 9.6,5.821875 C9.6,5.7375 9.6,5.653125 9.51428571,5.56875 C9.42857143,5.484375 9.34285714,5.4 9.25714286,5.4 L9.25714286,5.484375 Z" id="Shape" fill="#FFFFFF"></path>
            <ellipse id="Oval" fill="#FFFFFF" transform="translate(15.766833, 6.173697) rotate(-86.000144) translate(-15.766833, -6.173697) " cx="15.6811158" cy="6.08931923" rx="1" ry="1"></ellipse>
            <path d="M15.6857143,5.990625 L15.6857143,6.075 C15.7714286,6.075 15.7714286,6.075 15.8571429,6.159375 C15.8571429,6.159375 15.9428571,6.24375 15.9428571,6.328125 C15.9428571,6.4125 15.9428571,6.4125 15.8571429,6.496875 C15.8571429,6.496875 15.7714286,6.58125 15.6857143,6.58125 C15.6,6.58125 15.6,6.58125 15.5142857,6.496875 C15.5142857,6.496875 15.4285714,6.4125 15.4285714,6.328125 C15.4285714,6.24375 15.4285714,6.24375 15.5142857,6.159375 C15.5142857,6.159375 15.6,6.075 15.6857143,6.075 L15.6857143,5.990625 L15.6857143,5.90625 C15.6,5.90625 15.5142857,5.90625 15.4285714,5.990625 C15.3428571,6.075 15.2571429,6.159375 15.2571429,6.24375 C15.2571429,6.328125 15.2571429,6.4125 15.3428571,6.496875 C15.4285714,6.58125 15.5142857,6.665625 15.6,6.665625 C15.6857143,6.665625 15.7714286,6.665625 15.8571429,6.58125 C15.9428571,6.496875 16.0285714,6.4125 16.0285714,6.328125 C16.0285714,6.24375 16.0285714,6.159375 15.9428571,6.075 C15.8571429,5.990625 15.7714286,5.90625 15.6857143,5.90625 L15.6857143,5.990625 Z" id="Shape" fill="#FFFFFF"></path>
        </g>
        <g id="android2" transform="translate(1122.000000, 222.000000)" fill-rule="nonzero">
            <ellipse id="Oval" fill="#1EA0C5" transform="translate(12.121570, 11.324010) rotate(-19.998771) translate(-12.121570, -11.324010) " cx="12.12157" cy="11.32401" rx="8.20000037" ry="7.60000034"></ellipse>
            <path d="M9.5,4.2 L9.6,4.4 C11.7,3.6 13.8,3.7 15.6,4.5 C16.5,4.9 17.3,5.4 18,6.1 C18.7,6.8 19.2,7.6 19.6,8.6 C19.9,9.6 20.1,10.5 20,11.5 C19.9,12.9 19.3,14.3 18.4,15.5 C17.5,16.7 16.2,17.6 14.6,18.2 C12.5,19 10.4,18.9 8.6,18.1 C7.7,17.7 6.9,17.2 6.2,16.5 C5.5,15.8 5,15 4.6,14 C4.3,13 4.1,12.1 4.2,11.1 C4.3,9.7 4.9,8.3 5.8,7.1 C6.7,5.9 8,5 9.6,4.4 L9.5,4.2 L9.4,4 C7.2,4.8 5.5,6.3 4.6,8.2 C4.1,9.1 3.8,10.1 3.7,11.1 C3.6,12.1 3.7,13.2 4.1,14.2 C4.5,15.2 5,16.1 5.8,16.8 C6.9,17.9 8.3,18.6 9.8,19 C11.3,19.3 13,19.2 14.7,18.6 C16.9,17.8 18.6,16.3 19.5,14.4 C20,13.5 20.3,12.5 20.4,11.5 C20.5,10.5 20.4,9.4 20,8.4 C19.6,7.4 19.1,6.5 18.3,5.8 C17.2,4.7 15.8,4 14.3,3.6 C12.8,3.3 11.1,3.4 9.4,4 L9.5,4.2 Z" id="Shape" fill="#FFFFFF"></path>
            <path d="M5.6,11.6 L17.3,7.4 C18.3,7 19.5,7.6 19.8,8.6 L24,20.3 C24.4,21.3 23.8,22.5 22.8,22.8 L11.1,27 C10.1,27.4 8.9,26.8 8.6,25.8 L4.4,14.1 C4.1,13.1 4.6,12 5.6,11.6 Z" id="Shape" fill="#1EA0C5"></path>
            <path d="M5.6,11.6 L5.7,11.8 L17.4,7.6 C17.6,7.5 17.9,7.5 18.1,7.5 C18.4,7.5 18.8,7.6 19,7.8 C19.3,8 19.5,8.3 19.6,8.6 L23.8,20.3 C23.9,20.5 23.9,20.8 23.9,21 C23.9,21.3 23.8,21.7 23.6,21.9 C23.4,22.2 23.1,22.4 22.8,22.5 L11.1,26.7 C10.9,26.8 10.6,26.8 10.4,26.8 C10.1,26.8 9.7,26.7 9.5,26.5 C9.2,26.3 9,26 8.9,25.7 L4.7,14 C4.6,13.8 4.6,13.5 4.6,13.3 C4.6,13 4.7,12.6 4.9,12.4 C5.1,12.1 5.4,11.9 5.7,11.8 L5.6,11.6 L5.5,11.4 C5.2,11.5 5,11.7 4.8,11.9 C4.5,12.2 4.3,12.6 4.2,13 C4.1,13.4 4.1,13.9 4.3,14.3 L8.5,26 C8.6,26.3 8.8,26.5 9,26.7 C9.3,27 9.7,27.2 10.1,27.3 C10.5,27.4 11,27.4 11.4,27.2 L23.1,23 C23.4,22.9 23.6,22.7 23.8,22.5 C24.1,22.2 24.3,21.8 24.4,21.4 C24.5,21 24.5,20.5 24.3,20.1 L20.1,8.4 C20,8.1 19.8,7.9 19.6,7.7 C19.3,7.4 18.9,7.2 18.5,7.1 C18.1,7 17.6,7 17.2,7.2 L5.5,11.4 L5.6,11.6 Z" id="Shape" fill="#FFFFFF"></path>
            <path d="M3.8,4.1 L3.8,4.1 C3.6,4.3 3.6,4.7 3.9,4.9 L8.9,9.2 C9.1,9.4 9.5,9.4 9.7,9.1 C9.9,8.8 9.9,8.5 9.6,8.3 L4.6,4 C4.4,3.8 4,3.9 3.8,4.1 Z" id="Shape" fill="#1EA0C5"></path>
            <path d="M3.8,4.1 L3.8,4.1 C3.6,4.1 3.6,4.2 3.6,4.4 L3.6,4.8 C3.6,4.9 3.7,5 3.8,5.1 L8.8,9.4 C8.9,9.5 9,9.5 9.1,9.6 L9.5,9.6 C9.6,9.6 9.7,9.5 9.8,9.4 C9.9,9.3 9.9,9.2 10,9.1 L10,8.7 C10,8.6 9.9,8.5 9.8,8.4 L4.8,4.1 C4.7,4 4.6,4 4.5,3.9 L4.1,3.9 C3.9,3.9 3.8,3.9 3.8,4.1 L3.8,4.1 L3.8,4.1 C3.9,4.1 4,4.1 4.1,4 L4.3,4 C4.4,4 4.5,4.1 4.5,4.1 L9.5,8.4 C9.6,8.5 9.6,8.5 9.6,8.6 L9.6,8.8 C9.6,8.9 9.5,9 9.5,9 C9.4,9.1 9.4,9.1 9.3,9.1 L9.1,9.1 C9,9.1 8.9,9 8.9,9 L3.9,4.7 C3.8,4.6 3.8,4.6 3.8,4.5 L3.8,4.3 L3.8,4.1 L3.8,4.1 Z" id="Shape" fill="#FFFFFF"></path>
            <path d="M22.2,7.6 L22.2,7.6 C21.1,8 20.5,9.2 20.9,10.4 L23.5,17.6 C23.9,18.7 25.1,19.3 26.3,18.9 C27.4,18.5 28,17.3 27.6,16.1 L25,8.9 C24.5,7.8 23.3,7.2 22.2,7.6 Z" id="Shape" fill="#1EA0C5"></path>
            <path d="M22.2,7.6 L22.2,7.5 C21.6,7.7 21.2,8.1 20.9,8.7 C20.7,9.2 20.6,9.8 20.8,10.4 L23.4,17.6 C23.6,18.2 24,18.6 24.6,18.9 C25.1,19.1 25.7,19.2 26.3,19 C26.9,18.8 27.3,18.4 27.6,17.8 C27.8,17.3 27.9,16.7 27.7,16.1 L25.1,8.9 C24.9,8.3 24.5,7.9 23.9,7.6 C23.4,7.4 22.8,7.3 22.2,7.5 L22.2,7.6 L22.2,7.7 C22.7,7.5 23.3,7.5 23.8,7.8 C24.3,8 24.7,8.4 24.9,9 L27.5,16.2 C27.7,16.7 27.7,17.3 27.4,17.8 C27.2,18.3 26.8,18.7 26.2,18.9 C25.7,19.1 25.1,19.1 24.6,18.8 C24.1,18.6 23.7,18.2 23.5,17.6 L20.9,10.4 C20.7,9.9 20.7,9.3 21,8.8 C21.2,8.3 21.6,7.9 22.2,7.7 L22.2,7.6 Z" id="Shape" fill="#FFFFFF"></path>
            <path d="M18,18.4 L18,18.4 C16.9,18.8 16.3,20 16.7,21.2 L19.3,28.4 C19.7,29.5 20.9,30.1 22.1,29.7 C23.3,29.3 23.8,28.1 23.4,26.9 L20.8,19.7 C20.3,18.6 19.1,18 18,18.4 Z" id="Shape" fill="#1EA0C5"></path>
            <path d="M18,18.4 L18,18.3 C17.4,18.5 17,18.9 16.7,19.5 C16.5,20 16.4,20.6 16.6,21.2 L19.2,28.4 C19.4,29 19.8,29.4 20.4,29.7 C20.9,29.9 21.5,30 22.1,29.8 C22.7,29.6 23.1,29.2 23.4,28.6 C23.6,28.1 23.7,27.5 23.5,26.9 L20.9,19.7 C20.7,19.1 20.3,18.7 19.7,18.4 C19.2,18.2 18.6,18.1 18,18.3 L18,18.4 L18,18.5 C18.5,18.3 19.1,18.3 19.6,18.6 C20.1,18.8 20.5,19.2 20.7,19.8 L23.3,27 C23.5,27.5 23.5,28.1 23.2,28.6 C23,29.1 22.6,29.5 22,29.7 C21.5,29.9 20.9,29.9 20.4,29.6 C19.9,29.4 19.5,29 19.3,28.4 L16.7,21.2 C16.5,20.7 16.5,20.1 16.8,19.6 C17,19.1 17.4,18.7 18,18.5 L18,18.4 Z" id="Shape" fill="#FFFFFF"></path>
            <path d="M13.9,0.4 L13.9,0.4 C14.2,0.5 14.4,0.8 14.4,1.1 L13.4,7.6 C13.3,7.9 13,8.1 12.7,8.1 C12.4,8.1 12.2,7.7 12.2,7.4 L13.2,0.9 C13.3,0.6 13.6,0.4 13.9,0.4 Z" id="Shape" fill="#1EA0C5"></path>
            <path d="M13.9,0.4 L13.9,0.5 C14,0.5 14.1,0.6 14.1,0.6 C14.2,0.7 14.2,0.7 14.2,0.8 L14.2,1 L13.2,7.5 C13.2,7.6 13.1,7.7 13.1,7.7 C13,7.8 13,7.8 12.9,7.8 L12.7,7.8 C12.6,7.8 12.5,7.7 12.5,7.7 C12.4,7.6 12.4,7.6 12.4,7.5 L12.4,7.3 L13.4,0.8 C13.4,0.7 13.5,0.6 13.5,0.6 C13.6,0.5 13.6,0.5 13.7,0.5 L13.9,0.5 L13.9,0.4 L13.9,0.3 L13.6,0.3 C13.5,0.3 13.4,0.4 13.3,0.5 C13.2,0.6 13.2,0.7 13.1,0.8 L12.1,7.3 L12.1,7.6 C12.1,7.7 12.2,7.8 12.3,7.9 C12.4,8 12.5,8 12.6,8.1 L12.9,8.1 C13,8.1 13.1,8 13.2,7.9 C13.3,7.8 13.3,7.7 13.4,7.6 L14.4,1.1 L14.4,1.1 L14.4,0.8 C14.4,0.7 14.3,0.6 14.2,0.5 C14.1,0.4 14,0.4 13.9,0.3 L13.9,0.4 Z" id="Shape" fill="#FFFFFF"></path>
            <path d="M2,14.9 L2,14.9 C3.1,14.5 4.4,15.1 4.8,16.2 L7.4,23.4 C7.8,24.5 7.2,25.8 6.1,26.2 C5,26.6 3.7,26 3.3,24.9 L0.7,17.7 C0.3,16.6 0.9,15.3 2,14.9 Z" id="Shape" fill="#1EA0C5"></path>
            <path d="M2,14.9 L2,15 C2.5,14.8 3.1,14.8 3.6,15.1 C4.1,15.3 4.5,15.7 4.7,16.3 L7.3,23.5 C7.5,24 7.5,24.6 7.2,25.1 C7,25.6 6.6,26 6,26.2 C5.5,26.4 4.9,26.4 4.4,26.1 C3.9,25.9 3.5,25.5 3.3,24.9 L0.7,17.7 C0.5,17.2 0.5,16.6 0.8,16.1 C1,15.6 1.4,15.2 2,15 L2,14.9 L2,14.8 C1.4,15 1,15.4 0.7,16 C0.5,16.5 0.4,17.1 0.6,17.7 L3.2,24.9 C3.4,25.5 3.8,25.9 4.4,26.2 C4.9,26.4 5.5,26.5 6.1,26.3 C6.7,26.1 7.1,25.7 7.4,25.1 C7.6,24.6 7.7,24 7.5,23.4 L4.9,16.2 C4.7,15.6 4.3,15.2 3.7,14.9 C3.2,14.7 2.6,14.6 2,14.8 L2,14.9 Z" id="Shape" fill="#FFFFFF"></path>
            <path d="M12.2,20.5 L12.2,20.5 C13.3,20.1 14.6,20.7 15,21.8 L17.6,29 C18,30.1 17.4,31.4 16.3,31.8 C15.2,32.2 13.9,31.6 13.5,30.5 L10.9,23.3 C10.5,22.2 11.1,20.9 12.2,20.5 Z" id="Shape" fill="#1EA0C5"></path>
            <path d="M12.2,20.5 L12.2,20.6 C12.7,20.4 13.3,20.4 13.8,20.7 C14.3,20.9 14.7,21.3 14.9,21.9 L17.5,29.1 C17.7,29.6 17.7,30.2 17.4,30.7 C17.2,31.2 16.8,31.6 16.2,31.8 C15.7,32 15.1,32 14.6,31.7 C14.1,31.5 13.7,31.1 13.5,30.5 L10.9,23.3 C10.7,22.8 10.7,22.2 11,21.7 C11.2,21.2 11.6,20.8 12.2,20.6 L12.2,20.5 L12.2,20.4 C11.6,20.6 11.2,21 10.9,21.6 C10.7,22.1 10.6,22.7 10.8,23.3 L13.4,30.5 C13.6,31.1 14,31.5 14.6,31.8 C15.1,32 15.7,32.1 16.3,31.9 C16.9,31.7 17.3,31.3 17.6,30.7 C17.8,30.2 17.9,29.6 17.7,29 L15.1,21.8 C14.9,21.2 14.5,20.8 13.9,20.5 C13.4,20.3 12.8,20.2 12.2,20.4 L12.2,20.5 Z" id="Shape" fill="#FFFFFF"></path>
            <ellipse id="Oval" fill="#1EA0C5" transform="translate(12.121570, 11.324010) rotate(-19.998771) translate(-12.121570, -11.324010) " cx="12.12157" cy="11.32401" rx="8.20000037" ry="7.60000034"></ellipse>
            <path d="M5.6,11.6 L17.3,7.4 C18.3,7 19.5,7.6 19.8,8.6 L24,20.3 C24.4,21.3 23.8,22.5 22.8,22.8 L11.1,27 C10.1,27.4 8.9,26.8 8.6,25.8 L4.4,14.1 C4.1,13.1 4.6,12 5.6,11.6 Z" id="Shape" fill="#1EA0C5"></path>
            <path d="M4.2,14.5 L20.3,8.6" id="Shape" fill="#FFFFFF"></path>
            <polyline id="Shape" fill="#FFFFFF" points="4.2 14.6 20.3 8.7 20.2 8.5 4.1 14.4"></polyline>
            <circle id="Oval" fill="#FFFFFF" transform="translate(7.440180, 9.180340) rotate(-19.998771) translate(-7.440180, -9.180340) " cx="7.34018" cy="9.08034" r="1"></circle>
            <path d="M7.2,8.7 L7.2,8.8 L7.4,8.8 C7.5,8.8 7.5,8.9 7.5,8.9 L7.5,9.1 C7.5,9.2 7.4,9.2 7.4,9.2 L7.2,9.2 C7.1,9.2 7.1,9.1 7.1,9.1 L7.1,8.9 C7.1,8.8 7.2,8.8 7.2,8.8 L7.2,8.7 L7.2,8.6 C7.1,8.6 7,8.7 6.9,8.8 C6.8,8.9 6.8,9 6.9,9.2 C6.9,9.3 7,9.4 7.1,9.5 C7.2,9.6 7.3,9.6 7.5,9.5 C7.6,9.5 7.7,9.4 7.8,9.3 C7.9,9.2 7.9,9.1 7.8,8.9 C7.8,8.8 7.7,8.7 7.6,8.6 C7.5,8.5 7.4,8.5 7.2,8.6 L7.2,8.7 Z" id="Shape" fill="#FFFFFF"></path>
            <circle id="Oval" fill="#FFFFFF" transform="translate(14.535650, 6.582720) rotate(-19.998771) translate(-14.535650, -6.582720) " cx="14.43565" cy="6.48272" r="1"></circle>
            <path d="M14.3,6.2 L14.3,6.3 L14.5,6.3 C14.6,6.3 14.6,6.4 14.6,6.4 L14.6,6.6 C14.6,6.7 14.5,6.7 14.5,6.7 L14.3,6.7 C14.2,6.7 14.2,6.6 14.2,6.6 L14.2,6.4 C14.2,6.3 14.3,6.3 14.3,6.3 L14.3,6.2 L14.3,6.1 C14.2,6.1 14.1,6.2 14,6.3 C13.9,6.4 13.9,6.5 14,6.7 C14,6.8 14.1,6.9 14.2,7 C14.3,7.1 14.4,7.1 14.6,7 C14.7,7 14.8,6.9 14.9,6.8 C15,6.7 15,6.6 14.9,6.4 C14.9,6.3 14.8,6.2 14.7,6.1 C14.6,6 14.5,6 14.3,6.1 L14.3,6.2 Z" id="Shape" fill="#FFFFFF"></path>
        </g>
    </g>
</svg>